<svg width="16" height="16" viewBox="0 0 16 16" fill="none" xmlns="http://www.w3.org/2000/svg">
<path d="M14.2222 0H1.77778C0.8 0 0 0.8 0 1.77778V14.2222C0 15.2 0.8 16 1.77778 16H14.2222C15.2 16 16 15.2 16 14.2222V1.77778C16 0.8 15.2 0 14.2222 0ZM9.09333 12.88C9.07555 12.9511 9.05778 13.0222 9.02222 13.0933C8.99555 13.1556 8.96 13.2178 8.92444 13.28C8.88 13.3422 8.83556 13.3956 8.78222 13.4489C8.72889 13.5022 8.67556 13.5467 8.61333 13.5911C8.55111 13.6267 8.48889 13.6622 8.42667 13.6889C8.35556 13.7156 8.28444 13.7422 8.21333 13.7511C8.14222 13.7689 8.07111 13.7778 8 13.7778C7.70667 13.7778 7.42222 13.6533 7.21778 13.4489C7.00444 13.2444 6.88889 12.96 6.88889 12.6667C6.88889 12.5956 6.89778 12.5156 6.90667 12.4444C6.92444 12.3733 6.94222 12.3111 6.97778 12.24C7.00444 12.1689 7.04 12.1067 7.07556 12.0444C7.12 11.9911 7.16444 11.9289 7.21778 11.8756C7.47556 11.6178 7.85778 11.5022 8.21333 11.5733C8.28444 11.5911 8.35556 11.6089 8.42667 11.6356C8.48889 11.6622 8.55111 11.6978 8.61333 11.7422C8.67556 11.7778 8.72889 11.8311 8.78222 11.8756C8.83556 11.9289 8.88 11.9911 8.92444 12.0444C8.96 12.1067 8.99555 12.1689 9.02222 12.24C9.05778 12.3111 9.07555 12.3733 9.09333 12.4444C9.10222 12.5156 9.11111 12.5956 9.11111 12.6667C9.11111 12.7378 9.10222 12.8089 9.09333 12.88ZM9.63556 8.31111C9.16444 8.60444 8.88889 9.06667 8.88889 9.55556C8.88889 10.0444 8.48889 10.4444 8 10.4444C7.51111 10.4444 7.11111 10.0444 7.11111 9.55556C7.11111 8.45333 7.69778 7.43111 8.68445 6.80889C9.08444 6.56 9.47556 5.99111 9.28 5.22667C9.17333 4.77333 8.8 4.39111 8.36444 4.26667C7.94667 4.16 7.53778 4.24 7.20889 4.48889C6.86222 4.75556 6.66667 5.16444 6.66667 5.61778C6.66667 6.10667 6.26667 6.50667 5.77778 6.50667C5.28889 6.50667 4.88889 6.10667 4.88889 5.61778C4.88889 4.61333 5.34222 3.68889 6.12444 3.08444C6.88889 2.49778 7.86667 2.30222 8.81778 2.55111C9.87556 2.83556 10.7378 3.71556 11.0044 4.79111C11.3511 6.16 10.8 7.58222 9.63556 8.31111Z" fill="#771469"/>
</svg>
