<svg width="16" height="16" viewBox="0 0 16 16" fill="none" xmlns="http://www.w3.org/2000/svg">
<path d="M15.9999 7.99999C15.9999 8.04444 15.991 8.08888 15.9821 8.13333C15.9554 8.26666 15.8932 8.38221 15.8043 8.4711L12.0266 12.2489C11.8932 12.3822 11.7243 12.4444 11.5554 12.4444C11.3866 12.4444 11.2177 12.3822 11.0843 12.2489C10.8266 11.9911 10.8266 11.5644 11.0843 11.3067L13.7243 8.66666H5.111C4.74656 8.66666 4.44434 8.36444 4.44434 7.99999C4.44434 7.63555 4.74656 7.33333 5.111 7.33333H13.7243L11.0843 4.69333C10.8266 4.43555 10.8266 4.00888 11.0843 3.7511C11.3421 3.49333 11.7688 3.49333 12.0266 3.7511L15.8043 7.52888C15.8932 7.61777 15.9554 7.73333 15.9821 7.86666C15.991 7.9111 15.9999 7.95555 15.9999 7.99999Z" fill="#771469"/>
<path d="M9.11111 16H2.44444C1.09333 16 0 14.9067 0 13.5556V2.44444C0 1.09333 1.09333 0 2.44444 0H9.11111C9.47556 0 9.77778 0.302222 9.77778 0.666667C9.77778 1.03111 9.47556 1.33333 9.11111 1.33333H2.44444C1.83111 1.33333 1.33333 1.83111 1.33333 2.44444V13.5556C1.33333 14.1689 1.83111 14.6667 2.44444 14.6667H9.11111C9.47556 14.6667 9.77778 14.9689 9.77778 15.3333C9.77778 15.6978 9.47556 16 9.11111 16Z" fill="#771469"/>
</svg>
