<svg width="20" height="19" viewBox="0 0 20 19" fill="none" xmlns="http://www.w3.org/2000/svg">
<path d="M17 2.5V5C17 5.55 16.55 6 16 6H14.5C13.12 6 12 4.88 12 3.5V2.5C12 1.12 13.12 0 14.5 0C15.88 0 17 1.12 17 2.5Z" fill="#771469"/>
<path d="M8 2.5V5C8 5.55 7.55 6 7 6H5.5C4.12 6 3 4.88 3 3.5V2.5C3 1.12 4.12 0 5.5 0C6.88 0 8 1.12 8 2.5Z" fill="#771469"/>
<path d="M16 18C16 18.55 15.55 19 15 19H5C4.45 19 4 18.55 4 18C4 15.79 5.79 14 8 14H12C14.21 14 16 15.79 16 18Z" fill="#771469"/>
<path d="M5 13H1C0.45 13 0 12.55 0 12V11.44C0 9.07 1.87 7 4 7H5C5.55 7 6 7.45 6 8C6 8.55 5.55 9 5 9H4C3.19 9 2.24 9.86 2.04 11H5C5.55 11 6 11.45 6 12C6 12.55 5.55 13 5 13Z" fill="#771469"/>
<path d="M19 13H15C14.45 13 14 12.55 14 12C14 11.45 14.45 11 15 11H17.96C17.76 9.86 16.8 9 16 9H15C14.45 9 14 8.55 14 8C14 7.45 14.45 7 15 7H16C18.13 7 20 9.07 20 11.44V12C20 12.55 19.55 13 19 13Z" fill="#771469"/>
<path d="M12.5 8.5V11C12.5 11.55 12.05 12 11.5 12H10C8.62 12 7.5 10.88 7.5 9.5V8.5C7.5 7.12 8.62 6 10 6C11.38 6 12.5 7.12 12.5 8.5Z" fill="#771469"/>
</svg>
