<svg width="16" height="16" viewBox="0 0 16 16" fill="none" xmlns="http://www.w3.org/2000/svg">
<path d="M14.6264 9.768L13.0824 8.88C13.1384 8.592 13.1624 8.304 13.1624 8C13.1624 7.696 13.1384 7.408 13.0824 7.12L14.6264 6.232C15.0984 5.952 15.2664 5.344 14.9944 4.864L13.9944 3.136C13.8584 2.904 13.6424 2.736 13.3864 2.664C13.1224 2.6 12.8504 2.632 12.6264 2.768L11.0904 3.656C10.6344 3.28 10.1224 2.984 9.56244 2.776V1C9.56244 0.448 9.11444 0 8.56244 0H6.56244C6.01044 0 5.56244 0.448 5.56244 1V2.776C5.00244 2.984 4.49044 3.28 4.03444 3.656L2.49844 2.768C2.26644 2.632 2.00244 2.6 1.73844 2.664C1.48244 2.736 1.26644 2.904 1.13044 3.136L0.130444 4.864C-0.141556 5.344 0.0264439 5.96 0.498444 6.232L2.04244 7.12C1.98644 7.408 1.96244 7.696 1.96244 8C1.96244 8.304 1.98644 8.592 2.04244 8.88L0.498444 9.768C0.0264439 10.04 -0.141556 10.656 0.130444 11.136L1.13044 12.864C1.26644 13.096 1.48244 13.264 1.73844 13.336C1.82644 13.352 1.91444 13.368 2.00244 13.368C2.17844 13.368 2.34644 13.32 2.49844 13.232L4.03444 12.344C4.49044 12.72 5.00244 13.016 5.56244 13.224V15C5.56244 15.552 6.01044 16 6.56244 16H8.56244C9.11444 16 9.56244 15.552 9.56244 15V13.224C10.1224 13.016 10.6344 12.72 11.0904 12.344L12.6264 13.232C12.7784 13.32 12.9464 13.368 13.1224 13.368C13.2104 13.368 13.2984 13.352 13.3864 13.336C13.6424 13.264 13.8584 13.096 13.9944 12.864L14.9944 11.136C15.2664 10.656 15.0984 10.048 14.6264 9.768ZM4.76244 8C4.76244 6.456 6.01844 5.2 7.56244 5.2C9.10644 5.2 10.3624 6.456 10.3624 8C10.3624 9.544 9.10644 10.8 7.56244 10.8C6.01844 10.8 4.76244 9.544 4.76244 8Z" fill="#771469"/>
</svg>
