<svg width="16" height="16" viewBox="0 0 16 16" fill="none" xmlns="http://www.w3.org/2000/svg">
<path d="M15.9855 2.97959L15.6833 5.29038C15.15 9.3787 12.8481 13.0049 9.37306 15.2357L8.37764 15.8756C8.2621 15.9556 8.12878 16 7.99547 16C7.87104 16 7.74661 15.9644 7.63108 15.8933L6.61788 15.2357C3.14281 13.0049 0.840907 9.3787 0.307648 5.29038L0.00546762 2.97959C-0.0389706 2.63297 0.192108 2.30412 0.529839 2.23302C2.04074 1.93084 6.27126 0.962089 7.63996 0.0999861C7.86215 -0.0333287 8.12878 -0.0333287 8.35098 0.0999861C9.71967 0.962089 13.9502 1.93084 15.4611 2.23302C15.7988 2.30412 16.0299 2.63297 15.9855 2.97959Z" fill="#771469"/>
</svg>
